# Blender v2.92.0 OBJ File: ''
# www.blender.org
mtllib single_island.mtl
o Dirt_Cylinder.001
v 1.137705 -12.093185 -0.789127
v -1.023800 -8.952618 2.355955
v -1.593930 -8.940599 1.674791
v -2.072981 -8.917263 1.075495
v -2.070544 -8.847158 0.701355
v -2.063900 -8.822780 0.213329
v -2.243890 -8.853251 -0.357700
v -2.399854 -8.925792 -1.256226
v -1.970156 -8.966362 -2.113916
v -0.964100 -8.966362 -2.710989
v -0.167350 -9.076090 -3.008928
v 0.449073 -9.482468 -3.021597
v 1.043621 -9.756699 -2.874718
v 1.705340 -9.756699 -2.563147
v 2.263636 -9.756699 -2.059778
v 2.704170 -9.483702 -1.496624
v 3.008071 -8.967340 -0.862309
v 3.182793 -8.727977 -0.017687
v 3.091372 -8.820486 0.812019
v 2.702487 -8.944521 1.518229
v 2.152377 -8.966363 2.099136
v 1.374442 -8.966363 2.461086
v 0.473017 -8.966363 2.599197
v -2.072981 -8.917263 1.075495
v -2.070544 -8.847158 0.701355
v -0.313032 -8.964867 2.584219
v 2.263636 -9.756699 -2.059778
v 4.206418 -5.905110 -3.478703
v 2.704170 -9.483702 -1.496624
v -1.970156 -8.966362 -2.113916
v -0.964100 -8.966362 -2.710989
v -1.023800 -8.952618 2.355955
v -1.593930 -8.940599 1.674791
v 1.705340 -9.756699 -2.563147
v 3.091372 -8.820486 0.812019
v 2.702487 -8.944521 1.518229
v -0.313032 -8.964867 2.584219
v -2.243890 -8.853251 -0.357700
v -2.399854 -8.925792 -1.256226
v 0.449073 -9.482468 -3.021597
v 1.043621 -9.756699 -2.874718
v 3.008071 -8.967340 -0.862309
v 3.182793 -8.727977 -0.017687
v 1.374442 -8.966363 2.461086
v 0.473017 -8.966363 2.599197
v -2.063900 -8.822780 0.213329
v -0.167350 -9.076090 -3.008928
v 2.152377 -8.966363 2.099136
v -0.222431 -5.905109 5.010458
v -2.362239 -6.337983 4.031029
v 4.739462 -5.942848 -0.698507
v 4.934296 -5.911887 1.909414
v 2.381356 -5.928218 3.720724
v -5.312896 -6.155933 -2.200453
v 7.626941 -2.068993 5.436378
v 9.901186 -1.112402 3.205853
v 7.413485 -1.073219 7.177517
v 7.661774 -2.068993 -7.361076
v 10.628877 -1.184021 -6.318441
v -4.834564 -1.096663 10.050376
v -6.771780 -1.184019 7.747204
v 11.463850 -1.092648 -3.513435
v 10.512580 -1.157747 0.449093
v -3.870646 -5.942924 1.919086
v -8.586908 -1.131370 5.572369
v -10.205221 -1.090464 2.821724
v 3.333437 -2.068992 -9.881550
v 0.857569 -1.157746 -11.192848
v 3.630566 -1.072063 -10.798424
v 5.755587 -2.068992 7.412490
v 6.165751 -1.116828 -9.635521
v 9.093731 -1.072063 -8.900501
v 0.215026 -1.131371 12.571099
v -2.775134 -1.072062 12.553370
v -1.726605 -3.535487 9.760159
v -10.401130 -1.131370 -2.635399
v -4.670509 -6.489386 0.219261
v -10.720208 -1.131370 0.338081
v -5.225210 -1.184019 -9.753914
v -1.960229 -1.072062 -10.807884
v -1.768575 -2.068991 -9.890182
v -3.931605 -5.919400 -4.039114
v -2.753881 -6.512692 -5.373295
v -0.345010 -6.571091 -5.656696
v 2.961268 -5.912120 -4.693115
v 3.926573 -1.184020 9.607519
v -9.656049 -1.184019 -5.613913
v -7.997554 -1.096663 -8.108364
vt 0.500000 0.500000
vt 1.000000 1.000000
vt 0.956522 1.000000
vt 0.913043 1.000000
vt 0.869565 1.000000
vt 0.826087 1.000000
vt 0.782609 1.000000
vt 0.739130 1.000000
vt 0.695652 1.000000
vt 0.652174 1.000000
vt 0.608696 1.000000
vt 0.565217 1.000000
vt 0.521739 1.000000
vt 0.478261 1.000000
vt 0.434783 1.000000
vt 0.391304 1.000000
vt 0.347826 1.000000
vt 0.304348 1.000000
vt 0.260870 1.000000
vt 0.217391 1.000000
vt 0.173913 1.000000
vt 0.130435 1.000000
vt 0.086957 1.000000
vt 0.913043 1.000000
vt 0.869565 1.000000
vt 0.043478 1.000000
vt 0.000000 1.000000
vt 0.434783 1.000000
vt 0.416103 1.000000
vt 0.391304 1.000000
vt 0.695652 1.000000
vt 0.652174 1.000000
vt 1.000000 1.000000
vt 0.956522 1.000000
vt 0.478261 1.000000
vt 0.260870 1.000000
vt 0.217391 1.000000
vt 0.043478 1.000000
vt 0.000000 1.000000
vt 0.782609 1.000000
vt 0.739130 1.000000
vt 0.565217 1.000000
vt 0.521739 1.000000
vt 0.347826 1.000000
vt 0.304348 1.000000
vt 0.130435 1.000000
vt 0.086957 1.000000
vt 0.826087 1.000000
vt 0.608696 1.000000
vt 0.173913 1.000000
vt 0.068277 1.000000
vt 0.982226 1.000000
vt 0.328537 1.000000
vt 0.240712 1.000000
vt 0.153756 1.000000
vt 0.759376 1.000000
vt 0.217391 1.000000
vt 0.260870 1.000000
vt 0.195652 1.000000
vt 0.434783 1.000000
vt 0.391304 1.000000
vt 1.000000 1.000000
vt 0.956522 1.000000
vt 0.347826 1.000000
vt 0.304348 1.000000
vt 0.893754 1.000000
vt 0.913044 1.000000
vt 0.869565 1.000000
vt 0.521739 1.000000
vt 0.565217 1.000000
vt 0.521739 1.000000
vt 0.173913 1.000000
vt 0.478261 1.000000
vt 0.434783 1.000000
vt 0.086957 1.000000
vt 0.043478 1.000000
vt 0.043478 1.000000
vt 0.826087 1.000000
vt 0.782609 1.000000
vt 0.652174 1.000000
vt 0.608696 1.000000
vt 0.608696 1.000000
vt 0.695652 1.000000
vt 0.630435 1.000000
vt 0.000000 1.000000
vt 0.544972 1.000000
vt 0.826087 1.000000
vt 0.478261 1.000000
vt 0.130435 1.000000
vt 0.739130 1.000000
vt 0.695652 1.000000
vt 0.000000 1.000000
vn -0.5059 -0.7589 0.4101
vn -0.5237 -0.7579 0.3891
vn -0.7343 -0.6663 -0.1296
vn -0.7206 -0.6919 -0.0444
vn -0.6544 -0.7156 0.2444
vn -0.6695 -0.7220 0.1745
vn -0.6206 -0.7339 -0.2762
vn -0.3847 -0.6571 -0.6483
vn -0.3434 -0.6484 -0.6794
vn -0.4399 -0.6479 -0.6219
vn -0.1238 -0.6636 -0.7378
vn 0.3342 -0.6201 -0.7098
vn 0.5417 -0.5878 -0.6008
vn 0.7660 -0.5500 -0.3326
vn 0.8582 -0.5133 0.0067
vn 0.8574 -0.5137 -0.0318
vn 0.8504 -0.5249 0.0352
vn 0.7443 -0.5938 0.3056
vn 0.5626 -0.6520 0.5083
vn 0.3021 -0.6979 0.6494
vn 0.1050 -0.7205 0.6855
vn 0.0000 0.0000 1.0000
vn -0.0143 -0.7362 0.6766
vn -0.2105 -0.7603 0.6145
vn 0.7761 -0.5219 -0.3541
vn -0.0161 -0.6209 0.7837
vn -0.6036 -0.6256 0.4942
vn 0.8681 -0.4948 -0.0393
vn 0.7469 -0.5894 0.3078
vn 0.3749 -0.4584 0.8058
vn -0.7078 -0.6837 0.1780
vn 0.6732 -0.6034 0.4276
vn 0.3956 -0.8046 -0.4429
vn -0.4959 -0.7454 0.4454
vn 0.6162 -0.7759 0.1352
vn -0.5494 -0.7752 0.3117
vn 0.1226 -0.6914 -0.7120
vn 0.5016 -0.7230 0.4750
vn 0.1272 -0.8824 -0.4531
vn -0.0188 -0.7534 0.6573
vn -0.6694 -0.7417 0.0422
vn -0.6909 -0.7216 -0.0434
vn -0.6974 -0.7127 -0.0748
vn -0.2026 -0.6826 -0.7021
vn -0.2027 -0.6840 -0.7007
vn -0.2027 -0.6837 -0.7010
vn -0.5985 -0.7226 -0.3459
vn -0.5624 -0.6832 -0.4658
vn -0.5500 -0.6695 -0.4993
vn 0.8892 -0.4436 -0.1119
vn 0.8670 -0.4731 -0.1566
vn 0.8590 -0.4825 -0.1712
vn -0.6325 -0.6842 -0.3630
vn -0.4161 -0.7718 -0.4809
vn -0.6906 -0.6478 -0.3216
vn -0.2320 -0.6019 0.7641
vn -0.2436 -0.6068 0.7566
vn -0.2291 -0.6006 0.7660
vn -0.7065 -0.5707 0.4185
vn -0.6839 -0.5578 0.4702
vn -0.7131 -0.5744 0.4019
vn -0.3059 -0.7937 -0.5258
vn 0.8612 -0.5065 -0.0425
vn 0.8500 -0.5268 -0.0027
vn 0.8652 -0.4979 -0.0587
vn -0.1331 -0.7244 -0.6764
vn -0.3734 -0.6863 -0.6242
vn -0.0977 -0.7262 -0.6805
vn -0.6452 -0.6203 0.4461
vn -0.6788 -0.7264 0.1082
vn -0.6336 -0.5984 0.4905
vn -0.8638 -0.4942 -0.0982
vn -0.1394 -0.6851 -0.7150
vn 0.5392 -0.4584 0.7064
vn 0.6080 -0.4250 0.6707
vn 0.5127 -0.4700 0.7185
vn 0.3361 -0.5344 -0.7755
vn 0.3493 -0.5373 -0.7676
vn 0.3329 -0.5337 -0.7774
vn -0.6825 -0.7244 0.0972
vn -0.6590 -0.7252 0.1993
vn -0.6468 -0.7231 0.2425
vn 0.5914 -0.5288 -0.6088
vn 0.5764 -0.5235 -0.6275
vn 0.5938 -0.5296 -0.6058
vn 0.2382 -0.4645 0.8529
vn 0.3394 -0.5059 0.7930
vn 0.3756 -0.5193 0.7676
vn 0.3399 -0.7803 -0.5250
vn 0.3980 -0.7993 -0.4502
vn 0.3275 -0.7754 -0.5400
vn 0.2871 -0.7813 0.5542
vn 0.3006 -0.7877 0.5377
vn 0.3524 -0.7932 0.4966
vn 0.3721 -0.7944 0.4801
vn -0.6867 -0.7092 -0.1593
vn -0.4963 -0.7471 -0.4422
vn -0.5196 -0.7587 -0.3929
vn -0.5267 -0.7620 -0.3768
vn 0.5474 -0.8264 -0.1321
vn 0.5482 -0.8276 -0.1202
vn 0.5471 -0.8260 -0.1359
vn 0.2890 -0.8169 0.4991
vn -0.4113 -0.7454 -0.5246
vn -0.6303 -0.6619 -0.4058
vn -0.3500 -0.7587 -0.5494
vn -0.4581 -0.7774 0.4311
vn -0.1921 -0.8730 0.4483
vn -0.0204 -0.8972 0.4411
vn -0.5168 -0.7709 0.3722
vn -0.5844 -0.7463 0.3185
vn -0.6089 -0.7354 0.2974
vn -0.2010 -0.6760 -0.7089
vn 0.6491 -0.7607 0.0032
vn 0.6617 -0.7408 0.1157
vn 0.6642 -0.7304 0.1593
vn -0.1068 -0.6988 -0.7073
vn -0.1020 -0.6984 -0.7084
vn -0.1003 -0.6982 -0.7088
vn -0.5290 -0.7414 0.4130
vn -0.6355 -0.7465 0.1971
vn -0.6541 -0.7418 0.1478
vn 0.6149 -0.7220 0.3173
vn 0.0970 -0.7221 -0.6850
vn 0.4004 -0.7671 0.5013
vn 0.4273 -0.7823 0.4532
vn 0.4443 -0.7909 0.4207
vn 0.3098 -0.7745 -0.5515
vn 0.3133 -0.7737 -0.5506
vn 0.3145 -0.7734 -0.5503
vn 0.2903 -0.6932 -0.6597
vn 0.4620 -0.6194 0.6347
vn 0.3566 -0.8999 -0.2510
vn -0.5280 -0.7254 0.4416
vn -0.1190 -0.6847 -0.7190
vn -0.6605 -0.7473 0.0724
vn -0.6149 -0.7398 -0.2731
vn 0.9009 -0.4255 -0.0853
vn -0.3104 -0.7938 -0.5230
vn -0.2518 -0.6102 0.7512
vn -0.6645 -0.5463 0.5099
vn 0.8388 -0.5435 0.0318
vn -0.4498 -0.6637 -0.5977
vn -0.6663 -0.7442 -0.0462
vn 0.6771 -0.3856 0.6268
vn 0.3587 -0.5393 -0.7619
vn -0.6853 -0.7236 0.0822
vn 0.5713 -0.5216 -0.6337
vn 0.1376 -0.4179 0.8980
vn 0.4173 -0.8042 -0.4232
vn 0.2705 -0.7831 0.5601
vn -0.4868 -0.7419 -0.4612
vn 0.5485 -0.8280 -0.1164
vn -0.7064 -0.6153 -0.3499
vn -0.5363 -0.7332 0.4181
vn -0.4911 -0.7784 0.3911
vn 0.6422 -0.7655 -0.0389
vn -0.1081 -0.6990 -0.7069
vn -0.4944 -0.7324 0.4681
vn 0.3821 -0.7558 0.5318
vn 0.3084 -0.7748 -0.5518
usemtl Material.003
s 1
f 1/1/1 2/2/1 3/3/1
f 1/1/2 3/3/2 4/4/2
f 1/1/3 4/4/3 5/5/3
f 1/1/4 5/5/4 6/6/4
f 1/1/5 6/6/5 7/7/5
f 1/1/6 7/7/6 8/8/6
f 1/1/7 8/8/7 9/9/7
f 1/1/8 9/9/8 10/10/8
f 1/1/9 10/10/9 11/11/9
f 1/1/10 11/11/10 12/12/10
f 1/1/11 12/12/11 13/13/11
f 1/1/12 13/13/12 14/14/12
f 1/1/13 14/14/13 15/15/13
f 1/1/14 15/15/14 16/16/14
f 1/1/15 16/16/15 17/17/15
f 1/1/16 17/17/16 18/18/16
f 1/1/17 18/18/17 19/19/17
f 1/1/18 19/19/18 20/20/18
f 1/1/19 20/20/19 21/21/19
f 1/1/20 21/21/20 22/22/20
f 1/1/21 22/22/21 23/23/21
f 5/5/22 24/24/22 25/25/22
f 1/1/23 23/23/23 26/26/23
f 1/1/24 26/26/24 2/27/24
f 27/28/25 28/29/25 29/30/25
f 10/10/22 30/31/22 31/32/22
f 3/3/22 32/33/22 33/34/22
f 15/15/22 34/35/22 27/28/22
f 20/20/22 35/36/22 36/37/22
f 2/27/22 37/38/22 32/39/22
f 8/8/22 38/40/22 39/41/22
f 13/13/22 40/42/22 41/43/22
f 18/18/22 42/44/22 43/45/22
f 23/23/22 44/46/22 45/47/22
f 6/6/22 25/25/22 46/48/22
f 11/11/22 31/32/22 47/49/22
f 16/16/22 27/28/22 29/30/22
f 21/21/22 36/37/22 48/50/22
f 4/4/22 33/34/22 24/24/22
f 9/9/22 39/41/22 30/31/22
f 14/14/22 41/43/22 34/35/22
f 19/19/22 43/45/22 35/36/22
f 26/26/22 45/47/22 37/38/22
f 7/7/22 46/48/22 38/40/22
f 12/12/22 47/49/22 40/42/22
f 17/17/22 29/30/22 42/44/22
f 22/22/22 48/50/22 44/46/22
f 45/47/26 49/51/26 37/38/26
f 32/33/27 50/52/27 33/34/27
f 42/44/28 51/53/28 43/45/28
f 35/36/29 52/54/29 36/37/29
f 48/50/30 53/55/30 44/46/30
f 38/40/31 54/56/31 39/41/31
f 55/57/32 56/58/32 57/59/32
f 28/29/33 58/60/33 59/61/33
f 50/52/34 60/62/34 61/63/34
f 51/53/35 62/64/35 63/65/35
f 64/66/36 65/67/36 66/68/36
f 67/69/37 68/70/37 69/71/37
f 55/57/38 57/59/38 70/72/38
f 71/73/39 72/74/39 58/60/39
f 73/75/40 74/76/40 75/77/40
f 54/56/41 78/78/42 76/79/43
f 79/80/44 80/81/45 81/82/46
f 5/5/22 4/4/22 24/24/22
f 10/10/22 9/9/22 30/31/22
f 3/3/22 2/2/22 32/33/22
f 15/15/22 14/14/22 34/35/22
f 20/20/22 19/19/22 35/36/22
f 2/27/22 26/26/22 37/38/22
f 8/8/22 7/7/22 38/40/22
f 13/13/22 12/12/22 40/42/22
f 18/18/22 17/17/22 42/44/22
f 23/23/22 22/22/22 44/46/22
f 6/6/22 5/5/22 25/25/22
f 11/11/22 10/10/22 31/32/22
f 16/16/22 15/15/22 27/28/22
f 21/21/22 20/20/22 36/37/22
f 4/4/22 3/3/22 33/34/22
f 9/9/22 8/8/22 39/41/22
f 14/14/22 13/13/22 41/43/22
f 19/19/22 18/18/22 43/45/22
f 26/26/22 23/23/22 45/47/22
f 7/7/22 6/6/22 46/48/22
f 12/12/22 11/11/22 47/49/22
f 17/17/22 16/16/22 29/30/22
f 22/22/22 21/21/22 48/50/22
f 30/31/47 54/56/48 82/83/49
f 42/44/50 28/29/51 51/53/52
f 83/84/53 30/31/54 82/83/55
f 50/85/56 37/38/57 49/51/58
f 64/66/59 33/34/60 50/52/61
f 47/49/62 31/32/62 83/84/62
f 52/54/63 43/45/64 51/53/65
f 84/86/66 47/49/67 83/84/68
f 77/87/69 25/25/70 64/66/71
f 25/25/72 24/24/72 64/66/72
f 41/43/73 40/42/73 84/86/73
f 53/55/74 36/37/75 52/54/76
f 85/88/77 41/43/78 84/86/79
f 77/87/80 38/40/81 46/48/82
f 28/29/83 34/35/84 85/88/85
f 45/47/86 53/55/87 49/51/88
f 58/60/89 85/88/90 71/73/91
f 53/55/92 70/72/92 86/89/92
f 49/51/93 86/89/94 73/75/95
f 54/56/96 76/79/96 87/90/96
f 82/83/97 87/90/98 88/91/99
f 62/64/100 28/29/101 59/61/102
f 49/51/103 73/75/103 75/77/103
f 79/80/104 82/83/105 88/91/106
f 75/77/107 50/85/108 49/51/109
f 61/63/110 64/66/111 50/52/112
f 83/84/113 79/80/44 81/82/46
f 52/54/114 63/65/115 56/58/116
f 81/82/117 84/86/118 83/84/119
f 77/87/120 66/68/121 78/78/122
f 52/54/123 56/58/123 55/57/123
f 84/86/124 68/70/124 67/69/124
f 53/55/125 55/57/126 70/72/127
f 67/69/128 85/88/129 84/86/130
f 67/69/131 69/71/131 71/73/131
f 70/72/132 57/59/132 86/89/132
f 59/61/133 58/60/133 72/74/133
f 75/77/134 74/76/134 60/92/134
f 68/70/135 81/82/135 80/81/135
f 54/56/41 77/87/136 78/78/42
f 30/31/47 39/41/137 54/56/48
f 42/44/50 29/30/138 28/29/51
f 83/84/53 31/32/139 30/31/54
f 50/85/56 32/39/140 37/38/57
f 64/66/59 24/24/141 33/34/60
f 52/54/63 35/36/142 43/45/64
f 84/86/66 40/42/143 47/49/67
f 77/87/69 46/48/144 25/25/70
f 53/55/74 48/50/145 36/37/75
f 85/88/77 34/35/146 41/43/78
f 77/87/80 54/56/147 38/40/81
f 28/29/83 27/28/148 34/35/84
f 45/47/86 44/46/149 53/55/87
f 58/60/89 28/29/150 85/88/90
f 49/51/93 53/55/151 86/89/94
f 82/83/97 54/56/152 87/90/98
f 62/64/100 51/53/153 28/29/101
f 79/80/104 83/84/154 82/83/105
f 75/77/107 60/92/155 50/85/108
f 61/63/110 65/67/156 64/66/111
f 52/54/114 51/53/157 63/65/115
f 81/82/117 68/70/158 84/86/118
f 77/87/120 64/66/159 66/68/121
f 53/55/125 52/54/160 55/57/126
f 67/69/128 71/73/161 85/88/129
o Grass_Cylinder.002
v 0.215026 -1.131371 12.571099
v 3.926573 -1.184020 9.607519
v 4.207816 -0.156907 10.323249
v 0.304754 -0.100572 13.349239
v -10.884209 -0.056801 3.098709
v -9.190323 -0.100571 6.024143
v -7.248136 -0.156905 8.351217
v -5.154102 -0.063436 10.770555
v -2.894719 -0.037114 13.330274
v 7.938811 -0.038348 7.723148
v 10.600649 -0.080273 3.473467
v 11.254843 -0.128793 0.523735
v 12.212365 -0.059141 -3.634617
v 11.318946 -0.156905 -6.635975
v 9.676341 -0.037114 -9.398777
v 6.603737 -0.085010 -10.266808
v 3.891088 -0.037114 -11.511108
v 0.923981 -0.128792 -11.933144
v -2.091061 -0.037114 -11.521236
v -5.551099 -0.156905 -10.377712
v -8.178041 -0.063435 -8.457138
v -9.955012 -0.156905 -5.789196
v -11.085118 -0.100570 -2.758915
v -11.426531 -0.100571 0.422707
v 9.901186 -1.112402 3.205853
v 10.512580 -1.157747 0.449093
v 3.630566 -1.072063 -10.798424
v 0.857569 -1.157746 -11.192848
v -6.771780 -1.184019 7.747204
v -4.834564 -1.096663 10.050376
v -2.775134 -1.072062 12.553370
v 6.165751 -1.116828 -9.635521
v -8.586908 -1.131370 5.572369
v 9.093731 -1.072063 -8.900501
v -10.401130 -1.131370 -2.635399
v -10.720208 -1.131370 0.338081
v -1.960229 -1.072062 -10.807884
v 10.628877 -1.184021 -6.318441
v -9.656049 -1.184019 -5.613913
v -10.205221 -1.090464 2.821724
v 11.463850 -1.092648 -3.513435
v 7.413485 -1.073219 7.177517
v -7.997554 -1.096663 -8.108364
v -5.225210 -1.184019 -9.753914
vt 0.086957 1.000000
vt 0.130435 1.000000
vt 0.086957 1.000000
vt 0.489441 0.233622
vt 0.374700 0.455061
vt 0.401461 0.063829
vt 0.260870 1.000000
vt 0.304348 1.000000
vt 0.260870 1.000000
vt 0.521739 1.000000
vt 0.565217 1.000000
vt 0.521739 1.000000
vt 1.000000 1.000000
vt 0.956522 1.000000
vt 0.956522 1.000000
vt 0.043478 1.000000
vt 0.043478 1.000000
vt 0.478261 1.000000
vt 0.478261 1.000000
vt 0.913044 1.000000
vt 0.913044 1.000000
vt 0.000000 1.000000
vt 0.000000 1.000000
vt 0.434783 1.000000
vt 0.434783 1.000000
vt 0.826087 1.000000
vt 0.782609 1.000000
vt 0.782609 1.000000
vt 0.565217 1.000000
vt 0.608696 1.000000
vt 0.391304 1.000000
vt 0.391304 1.000000
vt 0.739130 1.000000
vt 0.739130 1.000000
vt 0.869565 1.000000
vt 0.869565 1.000000
vt 0.347826 1.000000
vt 0.347826 1.000000
vt 0.195652 1.000000
vt 0.195652 1.000000
vt 0.695652 1.000000
vt 0.695652 1.000000
vt 0.304348 1.000000
vt 0.826087 1.000000
vt 0.652174 1.000000
vt 0.652174 1.000000
vt 0.130435 1.000000
vt 0.608696 1.000000
vt 0.463092 0.360416
vt 0.425401 0.413813
vt 0.314751 0.481100
vt 0.025964 0.329622
vt 0.250000 0.490000
vt 0.074599 0.413813
vt 0.185249 0.481100
vt 0.125300 0.455061
vt 0.010560 0.233622
vt 0.484980 0.298829
vt 0.446073 0.111597
vt 0.476143 0.169629
vt 0.345616 0.029869
vt 0.023857 0.169629
vt 0.217320 0.012235
vt 0.282680 0.012235
vt 0.098539 0.063829
vt 0.154384 0.029869
vt 0.053927 0.111597
vt 1.000000 1.000000
vn 0.5073 -0.5519 0.6619
vn 0.5030 -0.5774 0.6431
vn 0.5081 -0.5467 0.6656
vn -0.0043 1.0000 0.0004
vn 0.0017 1.0000 0.0051
vn 0.0004 0.9999 -0.0105
vn 0.7906 -0.5837 0.1849
vn 0.1319 -0.5845 -0.8006
vn -0.6084 -0.5764 0.5455
vn -0.6061 -0.5879 0.5358
vn -0.6050 -0.5930 0.5313
vn -0.0167 -0.6015 0.7987
vn 0.3279 -0.5904 -0.7375
vn -0.6269 -0.5900 0.5089
vn -0.6427 -0.5176 0.5648
vn -0.6372 -0.5520 0.5379
vn -0.6348 -0.5643 0.5279
vn 0.2318 -0.5375 -0.8108
vn 0.2150 -0.5626 -0.7983
vn 0.2386 -0.5270 -0.8156
vn -0.8251 -0.5581 -0.0885
vn -0.1280 -0.5738 -0.8090
vn 0.6817 -0.5912 -0.4309
vn -0.8175 -0.5074 -0.2724
vn -0.8967 -0.3709 -0.2415
vn -0.9243 -0.3076 -0.2258
vn -0.7092 -0.5781 0.4035
vn -0.7038 -0.5846 0.4037
vn -0.7115 -0.5754 0.4033
vn 0.7793 -0.5894 -0.2128
vn 0.6881 -0.5795 0.4367
vn -0.7842 -0.3174 -0.5332
vn -0.7841 -0.3186 -0.5327
vn -0.7842 -0.3170 -0.5334
vn 0.8043 -0.5672 0.1771
vn 0.7943 -0.5803 0.1797
vn 0.7914 -0.5840 0.1804
vn -0.8026 -0.5709 0.1730
vn -0.8041 -0.5681 0.1750
vn -0.8052 -0.5662 0.1763
vn -0.5011 -0.5198 -0.6919
vn -0.4920 -0.4043 -0.7710
vn -0.5020 -0.5597 -0.6594
vn 0.4754 -0.5869 0.6554
vn -0.2392 -0.5687 -0.7870
vn -0.2380 -0.5612 -0.7927
vn -0.2396 -0.5713 -0.7850
vn 0.5020 -0.5828 0.6390
vn 0.0053 1.0000 -0.0021
vn 0.0829 0.9960 -0.0331
vn -0.0034 0.9999 0.0136
vn -0.0035 1.0000 0.0006
vn 0.0097 0.9993 -0.0370
vn -0.0023 0.9997 0.0228
vn 0.0200 0.9994 -0.0279
vn 0.0115 0.9999 -0.0100
vn -0.0030 0.9999 -0.0154
vn 0.0281 0.9996 -0.0061
vn -0.0401 0.9985 -0.0385
vn 0.1177 0.9866 0.1129
vn 0.0155 0.9999 -0.0073
vn -0.0040 1.0000 -0.0056
vn -0.0104 0.9998 0.0193
vn -0.0520 0.9871 0.1514
vn -0.0001 1.0000 0.0049
vn -0.0334 0.9974 0.0631
vn -0.0930 0.9957 -0.0047
vn -0.6094 -0.5715 0.5495
vn -0.6444 -0.5053 0.5740
vn 0.2077 -0.5732 -0.7927
vn -0.7835 -0.5537 -0.2819
vn -0.7013 -0.5875 0.4038
vn -0.7840 -0.3191 -0.5324
vn 0.8069 -0.5637 0.1764
vn -0.8016 -0.5726 0.1718
vn -0.4855 -0.3546 -0.7991
vn -0.2375 -0.5582 -0.7950
usemtl Material.004
s 1
f 89/93/162 91/94/163 92/95/164
f 110/96/165 94/97/166 107/98/167
f 113/99/168 100/100/168 99/101/168
f 115/102/169 106/103/169 105/104/169
f 118/105/170 95/106/171 117/107/172
f 119/108/173 92/95/173 97/109/173
f 120/110/174 105/104/174 104/111/174
f 117/107/175 94/112/175 121/113/175
f 119/108/176 96/114/177 118/115/178
f 122/116/179 104/111/180 103/117/181
f 124/118/182 111/119/182 123/120/182
f 116/121/183 107/122/183 106/103/183
f 122/116/184 102/123/184 126/124/184
f 123/120/185 110/125/186 127/126/187
f 128/127/188 94/112/189 93/128/190
f 129/129/191 102/123/191 101/130/191
f 130/131/192 99/101/192 98/132/192
f 131/133/193 110/125/194 109/134/195
f 129/129/196 100/100/197 114/135/198
f 128/127/199 112/136/200 124/118/201
f 132/137/202 109/134/203 108/138/204
f 90/139/205 98/132/205 91/94/205
f 125/140/206 108/138/207 107/122/208
f 89/93/162 90/139/209 91/94/163
f 112/141/210 93/142/211 94/97/166
f 94/97/166 95/143/212 98/144/213
f 95/143/212 96/145/214 91/146/215
f 96/145/214 97/147/216 92/148/217
f 91/146/215 98/144/213 95/143/212
f 98/144/213 99/149/218 94/97/166
f 96/145/214 92/148/217 91/146/215
f 112/141/210 94/97/166 111/150/219
f 110/96/165 111/150/219 94/97/166
f 108/151/220 109/152/221 110/96/165
f 106/153/222 107/98/167 100/154/223
f 107/98/167 108/151/220 110/96/165
f 100/154/223 107/98/167 94/97/166
f 104/155/224 105/156/225 106/153/222
f 102/157/226 103/158/227 104/155/224
f 100/154/223 101/159/228 102/157/226
f 99/149/218 100/154/223 94/97/166
f 104/155/224 106/153/222 100/154/223
f 100/154/223 102/157/226 104/155/224
f 113/99/168 114/135/168 100/100/168
f 115/102/169 116/121/169 106/103/169
f 118/105/170 96/160/229 95/106/171
f 119/108/173 89/93/173 92/95/173
f 120/110/174 115/102/174 105/104/174
f 117/107/175 95/106/175 94/112/175
f 119/108/176 97/109/230 96/114/177
f 122/116/179 120/110/231 104/111/180
f 124/118/182 112/136/182 111/119/182
f 116/121/183 125/140/183 107/122/183
f 122/116/184 103/117/184 102/123/184
f 123/120/185 111/119/232 110/125/186
f 128/127/188 121/113/233 94/112/189
f 129/129/191 126/124/191 102/123/191
f 130/131/192 113/99/192 99/101/192
f 131/133/193 127/126/234 110/125/194
f 129/129/196 101/130/235 100/100/197
f 128/127/199 93/128/236 112/136/200
f 132/137/202 131/133/237 109/134/203
f 90/139/205 130/131/205 98/132/205
f 125/140/206 132/137/238 108/138/207
