# Blender v2.92.0 OBJ File: 'grass_blade.blend'
# www.blender.org
mtllib grass_blade.mtl
o GrassBlade_Plane
v -0.003981 0.001764 0.000509
v 0.085476 0.002474 0.000844
v -0.100540 0.001776 0.000271
v -0.003468 1.574741 -0.001222
v 0.086374 0.509306 -0.000274
v -0.099641 0.511539 -0.000846
vt 0.000034 0.322845
vt 0.056900 0.000135
vt 0.058330 0.999966
vt 0.118276 0.324056
vt 0.000039 0.000686
vt 0.118276 0.000034
vn -0.0025 -0.0011 -1.0000
vn 0.0083 -0.0011 -1.0000
vn 0.0038 -0.0022 -1.0000
vn 0.0025 -0.0022 -1.0000
usemtl Material.001
s off
f 5/1/1 1/2/1 4/3/1
f 1/2/2 6/4/2 4/3/2
f 5/1/3 2/5/3 1/2/3
f 1/2/4 3/6/4 6/4/4
