# Blender v2.92.0 OBJ File: 'forest_nature_set_all_in.blend'
# www.blender.org
mtllib grass2.mtl
o Grass_bush_high_01_Plane.002
v -0.102084 0.000000 0.126487
v 0.103248 0.000000 0.052642
v -0.100496 0.000000 0.090396
v 0.069855 0.000000 0.026883
v 0.013638 0.510876 0.246102
v 0.006627 0.500285 0.272747
v 0.177531 0.465800 0.231044
v 0.155785 0.482954 0.209837
v 0.211994 0.845529 0.460254
v 0.205666 0.833726 0.474234
v 0.321043 0.820762 0.455696
v 0.308059 0.835526 0.443998
v 0.414595 1.031465 0.917417
v 0.018203 0.000000 0.052346
v 0.224627 0.000000 -0.094429
v 0.008689 0.000000 0.011506
v 0.179242 0.000000 -0.112777
v 0.136138 0.586573 0.101346
v 0.136637 0.574280 0.133323
v 0.314630 0.534252 0.033246
v 0.283688 0.554163 0.016344
v 0.456384 0.962981 0.262517
v 0.453684 0.949282 0.280123
v 0.576855 0.934233 0.223310
v 0.558682 0.951371 0.214296
v 0.769861 1.197281 0.649929
v -0.222988 0.000000 -0.003944
v 0.017536 0.000000 0.075442
v -0.195717 0.000000 -0.035799
v 0.005438 0.000000 0.028008
v -0.163792 0.589645 0.146532
v -0.189262 0.577351 0.165874
v -0.003203 0.537323 0.250012
v -0.007911 0.557234 0.215071
v -0.229301 0.996897 0.437966
v -0.245087 0.983197 0.446219
v -0.126357 0.968148 0.511811
v -0.129858 0.985286 0.491829
v -0.405408 1.197281 0.853795
v -0.137397 0.000000 -0.161206
v -0.060600 0.000000 0.058075
v -0.084321 0.000000 -0.135613
v -0.032877 0.000000 0.022750
v -0.146617 0.547593 -0.043558
v -0.174924 0.536316 -0.051260
v -0.132043 0.499599 0.131078
v -0.109271 0.517863 0.108114
v -0.493263 0.926766 0.062178
v -0.508092 0.914199 0.055316
v -0.489382 0.900395 0.178327
v -0.476811 0.916116 0.164606
v -0.871295 1.098272 0.316239
v -0.030772 0.000000 -0.200325
v -0.142693 0.000000 0.026892
v -0.002999 0.000000 -0.168906
v -0.094040 0.000000 0.021478
v -0.177112 0.633261 -0.149233
v -0.192742 0.620967 -0.177135
v -0.301829 0.580940 -0.004516
v -0.266572 0.600850 -0.004341
v -0.474626 0.965336 -0.264024
v -0.480614 0.951636 -0.280800
v -0.562012 0.936588 -0.172294
v -0.541738 0.953726 -0.172995
v -0.931177 1.197281 -0.479152
v 0.042574 0.000000 -0.244220
v -0.182280 0.000000 -0.115909
v 0.048102 0.000000 -0.201716
v -0.137984 0.000000 -0.092639
v -0.043449 0.625659 -0.297835
v -0.040708 0.613093 -0.330409
v -0.231903 0.572180 -0.246705
v -0.202151 0.592531 -0.226371
v -0.290934 1.021793 -0.586581
v -0.286399 1.007790 -0.604214
v -0.417443 0.992408 -0.558943
v -0.399875 1.009926 -0.547930
v -0.497428 1.223762 -1.006363
v 0.143225 0.000000 -0.066169
v -0.010466 0.000000 -0.267497
v 0.102731 0.000000 -0.055276
v -0.027264 0.000000 -0.221516
v 0.143416 0.640646 -0.252252
v 0.175358 0.628353 -0.253834
v 0.069302 0.588325 -0.428332
v 0.053459 0.608235 -0.396835
v 0.406979 0.990341 -0.512839
v 0.424668 0.976641 -0.510737
v 0.363710 0.961592 -0.631911
v 0.355317 0.978730 -0.613443
v 0.720227 1.197281 -0.937495
v -0.113764 0.000000 -0.016324
v 0.027378 0.000000 -0.174613
v 0.021134 0.000000 0.038832
v -0.005827 0.000000 -0.146572
v 0.172051 0.499927 -0.037467
v 0.197369 0.489013 -0.024615
v 0.192498 0.453477 -0.205836
v 0.166410 0.471153 -0.188539
v 0.475341 0.871333 -0.094684
v 0.488049 0.859170 -0.085271
v 0.494447 0.845810 -0.205525
v 0.479842 0.861025 -0.194987
v 0.911178 1.062943 -0.341860
v 0.126029 0.000000 -0.135040
v 0.072334 0.000000 0.012362
v -0.052286 0.000000 -0.150278
v 0.080065 0.000000 -0.028617
v -0.072708 0.499601 0.028909
v -0.099335 0.489129 0.034677
v 0.014043 0.455030 0.166603
v 0.022984 0.471991 0.137930
v -0.225065 0.866974 0.182492
v -0.240224 0.855303 0.183183
v -0.172157 0.842483 0.276558
v -0.167669 0.857083 0.259870
v -0.483269 1.068658 0.476728
v -0.004721 0.000000 0.036256
v 0.143970 0.000000 -0.104717
v 0.036843 0.000000 0.039650
v -0.011755 0.502303 -0.129511
v -0.020281 0.491831 -0.155387
v -0.139604 0.457732 -0.028812
v -0.110152 0.474693 -0.022925
v -0.225432 0.850720 -0.258857
v -0.227707 0.839049 -0.273859
v -0.313437 0.826229 -0.196385
v -0.296371 0.840829 -0.193670
v -0.477690 1.077833 -0.461295
v 0.038240 0.000000 0.110707
v -0.100657 0.000000 -0.054052
v 0.004750 0.000000 0.121651
v 0.090330 0.505942 0.011729
v 0.117438 0.495470 0.009013
v 0.019724 0.461371 -0.134901
v 0.007596 0.478332 -0.107424
v 0.275356 0.856509 -0.169661
v 0.290495 0.844839 -0.168632
v 0.233437 0.832019 -0.269112
v 0.227088 0.846618 -0.253040
v 0.554106 1.063821 -0.392048
vt 0.149393 0.524670
vt 0.155483 0.524670
vt 0.156666 0.524670
vt 0.159297 0.698295
vt 0.160293 0.835437
vt 0.153244 0.711149
vt 0.149449 0.524670
vt 0.158527 0.704689
vt 0.153492 0.715097
vt 0.164380 0.830605
vt 0.163920 0.836108
vt 0.167694 0.909143
vt 0.160518 0.839837
vt 0.153654 0.524670
vt 0.159357 0.524670
vt 0.160965 0.524670
vt 0.164153 0.723810
vt 0.169078 0.878510
vt 0.157848 0.738730
vt 0.153317 0.524670
vt 0.163057 0.731231
vt 0.157831 0.743312
vt 0.173441 0.872900
vt 0.172797 0.879289
vt 0.180277 0.970950
vt 0.169174 0.883616
vt 0.145111 0.524670
vt 0.153201 0.524670
vt 0.153630 0.524670
vt 0.146305 0.739875
vt 0.148533 0.885542
vt 0.144328 0.891152
vt 0.147207 0.744457
vt 0.152729 0.732376
vt 0.152895 0.724955
vt 0.146077 0.524670
vt 0.148409 0.891930
vt 0.138649 0.970950
vt 0.144887 0.896258
vt 0.150022 0.524670
vt 0.150862 0.524670
vt 0.148142 0.524670
vt 0.146813 0.724579
vt 0.135675 0.860288
vt 0.135012 0.865433
vt 0.151844 0.524670
vt 0.147816 0.728783
vt 0.149139 0.717701
vt 0.148332 0.710893
vt 0.136120 0.866148
vt 0.122148 0.934045
vt 0.135538 0.870117
vt 0.151919 0.524670
vt 0.149678 0.524670
vt 0.147955 0.524670
vt 0.146182 0.756133
vt 0.133103 0.873778
vt 0.135986 0.879388
vt 0.146736 0.760715
vt 0.143567 0.748634
vt 0.142318 0.741212
vt 0.152903 0.524670
vt 0.133821 0.880166
vt 0.120027 0.970950
vt 0.136198 0.884494
vt 0.154517 0.524670
vt 0.148122 0.524670
vt 0.146553 0.524670
vt 0.144795 0.737947
vt 0.142865 0.900319
vt 0.151567 0.753198
vt 0.154713 0.524670
vt 0.145849 0.745533
vt 0.151470 0.757881
vt 0.138223 0.894585
vt 0.138845 0.901114
vt 0.135390 0.980821
vt 0.142704 0.905538
vt 0.158082 0.524670
vt 0.152043 0.524670
vt 0.152638 0.524670
vt 0.155464 0.743965
vt 0.168050 0.888708
vt 0.159220 0.758885
vt 0.158089 0.763467
vt 0.154902 0.751387
vt 0.156648 0.524670
vt 0.165891 0.883099
vt 0.165594 0.889486
vt 0.178519 0.970950
vt 0.167424 0.893815
vt 0.148979 0.524670
vt 0.152802 0.524670
vt 0.153979 0.524670
vt 0.160000 0.706947
vt 0.170522 0.839941
vt 0.170295 0.844921
vt 0.153757 0.524670
vt 0.158903 0.700290
vt 0.159827 0.693701
vt 0.159103 0.711015
vt 0.170005 0.845613
vt 0.185282 0.920877
vt 0.169845 0.849455
vt 0.155845 0.524670
vt 0.155571 0.524670
vt 0.149490 0.706990
vt 0.146911 0.838701
vt 0.144500 0.843480
vt 0.150434 0.710894
vt 0.153823 0.700603
vt 0.153506 0.694280
vt 0.151157 0.524670
vt 0.147070 0.844143
vt 0.135892 0.923007
vt 0.145037 0.847830
vt 0.157473 0.524670
vt 0.154314 0.524670
vt 0.152842 0.524670
vt 0.152291 0.707998
vt 0.141907 0.832643
vt 0.144944 0.837421
vt 0.152592 0.711901
vt 0.149107 0.701610
vt 0.148064 0.695288
vt 0.158108 0.524670
vt 0.142512 0.838085
vt 0.136089 0.926427
vt 0.145024 0.841771
vt 0.154363 0.524670
vt 0.149444 0.524670
vt 0.157168 0.709354
vt 0.161277 0.834801
vt 0.163298 0.839579
vt 0.153177 0.524670
vt 0.153278 0.702966
vt 0.153707 0.696644
vt 0.156208 0.713257
vt 0.161052 0.840243
vt 0.172635 0.921204
vt 0.162762 0.843929
vn 0.0000 -1.0000 0.0000
vn 0.0902 -0.5540 0.8276
vn -0.3224 0.3850 -0.8648
vn 0.1660 -0.3098 0.9362
vn 0.7436 0.1324 -0.6554
vn -0.9722 0.2302 -0.0428
vn 0.8232 0.4347 -0.3652
vn 0.7374 0.1223 -0.6643
vn -0.8674 0.4969 0.0269
vn -0.0780 0.5747 -0.8146
vn -0.8069 0.5778 0.1226
vn 0.0302 0.9211 -0.3880
vn -0.0343 -0.9066 0.4207
vn 0.3066 -0.5604 0.7694
vn -0.5642 0.2867 -0.7742
vn 0.4418 -0.2140 0.8713
vn 0.3702 0.1565 -0.9157
vn -0.9759 0.1981 0.0914
vn 0.6928 0.4303 -0.5787
vn 0.5023 0.0798 -0.8610
vn -0.7861 0.5404 0.2999
vn -0.2922 0.5809 -0.7597
vn -0.7820 0.5443 0.3036
vn -0.1102 0.8875 -0.4475
vn 0.1165 -0.8681 0.4825
vn -0.4568 -0.5473 0.7013
vn 0.4354 0.2959 -0.8503
vn -0.3033 -0.2525 0.9188
vn 0.9931 0.0690 -0.0945
vn -0.6598 0.2544 -0.7071
vn 0.7990 0.5184 0.3046
vn 0.9645 0.2634 0.0202
vn -0.6598 0.3642 -0.6573
vn 0.4267 0.5736 -0.6992
vn -0.6969 0.4846 -0.5287
vn 0.2784 0.9060 -0.3187
vn -0.3039 -0.8874 0.3466
vn -0.7442 -0.6669 0.0383
vn 0.9634 0.1755 -0.2028
vn -0.9355 -0.1326 0.3276
vn 0.7865 0.0223 0.6172
vn 0.1893 0.1837 -0.9646
vn 0.4693 0.3370 0.8162
vn 0.4772 0.3294 0.8147
vn 0.1094 0.3585 -0.9271
vn 0.7308 0.6810 -0.0464
vn -0.2039 0.6435 -0.7378
vn 0.4271 0.9038 0.0254
vn -0.4678 -0.8834 -0.0280
vn -0.5621 -0.6498 -0.5118
vn 0.7971 0.2524 0.5486
vn -0.8766 -0.2125 -0.4318
vn -0.0307 0.0456 0.9985
vn 0.7994 0.2369 -0.5522
vn -0.3566 0.4553 0.8158
vn -0.2103 0.2870 0.9346
vn 0.6970 0.4248 -0.5776
vn 0.5560 0.6692 0.4930
vn 0.5664 0.5277 -0.6331
vn 0.2974 0.8946 0.3334
vn -0.3190 -0.8764 -0.3608
vn -0.1907 -0.6369 -0.7470
vn 0.4907 0.2421 0.8371
vn -0.3625 -0.1778 -0.9149
vn -0.4591 0.1599 0.8739
vn 0.9886 0.1486 0.0259
vn -0.7606 0.5111 0.4003
vn -0.6704 0.2285 0.7059
vn 0.8765 0.4694 -0.1073
vn 0.1887 0.6539 0.7327
vn 0.8485 0.4984 -0.1776
vn 0.0478 0.9091 0.4139
vn -0.0514 -0.8908 -0.4514
vn 0.6843 -0.6814 -0.2596
vn -0.8465 0.2481 0.4711
vn 0.7760 -0.2166 -0.5924
vn -0.8937 -0.0015 -0.4486
vn 0.1552 0.2813 0.9470
vn -0.7280 0.3051 -0.6140
vn -0.7561 0.2715 -0.5955
vn 0.2228 0.4689 0.8547
vn -0.6673 0.6970 0.2622
vn 0.4269 0.6480 0.6307
vn -0.4310 0.8946 0.1181
vn 0.4688 -0.8741 -0.1273
vn 0.7904 -0.6028 0.1090
vn -0.9267 0.3508 0.1348
vn 0.6771 -0.4206 0.6038
vn -0.4912 0.1194 -0.8628
vn -0.3531 0.2444 0.9031
vn -0.4063 0.2236 -0.8860
vn -0.3815 0.2943 -0.8762
vn -0.2881 0.3712 0.8827
vn -0.7770 0.6231 -0.0897
vn 0.1128 0.6791 0.7253
vn -0.4522 0.8850 -0.1112
vn 0.4897 -0.8633 0.1220
vn -0.7401 -0.4770 0.4740
vn 0.7536 0.2979 -0.5860
vn -0.6622 -0.2644 0.7011
vn 0.9515 0.0178 0.3072
vn -0.3158 0.3089 -0.8971
vn 0.6901 0.4425 0.5727
vn 0.8534 0.2865 0.4356
vn -0.2576 0.2798 -0.9249
vn 0.7076 0.5064 -0.4928
vn -0.4335 0.5194 -0.7364
vn 0.4384 0.8730 -0.2136
vn -0.4725 -0.8514 0.2276
vn -0.5199 -0.5372 -0.6642
vn 0.6625 0.2959 0.6882
vn -0.7690 -0.2531 -0.5870
vn -0.2336 0.0690 0.9699
vn 0.8832 0.2544 -0.3939
vn -0.5022 0.4498 0.7386
vn -0.3298 0.2574 0.9083
vn 0.8378 0.3621 -0.4087
vn 0.5285 0.5645 0.6341
vn 0.7689 0.4429 -0.4612
vn 0.3352 0.8065 0.4871
vn -0.3533 -0.7779 -0.5197
vn 0.7523 -0.5540 -0.3565
vn -0.7232 0.3018 0.6212
vn 0.8290 -0.2365 -0.5068
vn -0.8694 0.1440 -0.4727
vn 0.3070 0.1522 0.9395
vn -0.5903 0.4677 -0.6579
vn -0.8056 0.2744 -0.5250
vn 0.2138 0.3575 0.9091
vn -0.7263 0.5792 0.3701
vn 0.3078 0.4722 0.8260
vn -0.4892 0.8530 0.1820
vn 0.5253 -0.8288 -0.1926
vn 0.0711 -0.5538 0.8296
vn -0.1740 0.3225 -0.9304
vn 0.3126 -0.3828 0.8693
vn 0.5999 0.1879 -0.7777
vn -0.9558 0.2519 -0.1513
vn 0.7400 0.1199 -0.6618
vn -0.8538 0.5204 -0.0178
vn -0.0942 0.5756 -0.8123
vn 0.2899 -0.5592 0.7767
vn -0.4475 0.2296 -0.8643
vn 0.5562 -0.2806 0.7822
vn 0.5249 0.0981 -0.8455
vn -0.9603 0.1665 0.2237
vn 0.5130 0.0711 -0.8554
vn -0.7857 0.5732 0.2326
vn -0.3058 0.5826 -0.7530
vn -0.4390 -0.5549 0.7067
vn 0.2913 0.2682 -0.9183
vn -0.4455 -0.2921 0.8463
vn 0.9636 0.1056 -0.2458
vn -0.7394 0.2294 -0.6330
vn 0.9678 0.2479 0.0430
vn -0.6681 0.3585 -0.6520
vn 0.4423 0.5679 -0.6942
vn -0.7434 -0.6676 0.0404
vn 0.9391 0.1581 -0.3051
vn -0.9668 -0.1666 0.1938
vn 0.7140 -0.0101 0.7000
vn 0.4246 0.2102 -0.8806
vn 0.5065 0.3560 0.7853
vn 0.1183 0.3648 -0.9236
vn 0.7308 0.6811 -0.0466
vn -0.5637 -0.6518 -0.5074
vn 0.8783 0.2284 0.4200
vn -0.7922 -0.2472 -0.5580
vn 0.1103 0.0743 0.9911
vn 0.7317 0.2150 -0.6468
vn -0.1784 0.3076 0.9346
vn 0.6921 0.4181 -0.5884
vn 0.5553 0.6685 0.4947
vn -0.1838 -0.6372 -0.7484
vn 0.3689 0.1936 0.9091
vn -0.4818 -0.2348 -0.8443
vn -0.6113 0.1107 0.7836
vn 0.9850 0.1158 -0.1281
vn -0.6547 0.2416 0.7162
vn 0.8804 0.4547 -0.1346
vn 0.1930 0.6538 0.7316
vn -0.7661 0.2328 0.5991
vn 0.8528 -0.2421 -0.4628
vn -0.9390 0.0257 -0.3430
vn 0.2505 0.2653 0.9311
vn -0.7676 0.2918 -0.5706
vn 0.2492 0.4530 0.8560
vn -0.6683 0.6971 0.2595
vn 0.0000 1.0000 0.0000
vn 0.7886 -0.6070 0.0978
vn -0.9580 0.2863 -0.0188
vn 0.9398 -0.3393 0.0413
vn -0.6363 0.1655 -0.7535
vn 0.3666 -0.2484 -0.8966
vn -0.3588 0.2737 -0.8924
vn -0.2932 0.3744 0.8797
vn -0.7782 0.6203 -0.0987
vn -0.7208 -0.4865 0.4937
vn 0.6497 0.2800 -0.7068
vn -0.7612 -0.2935 0.5783
vn 0.9813 0.0534 0.1851
vn -0.3983 0.2907 -0.8700
vn 0.8436 0.2708 0.4638
vn -0.3001 0.2571 -0.9186
vn 0.7253 0.4991 -0.4742
vn -0.5315 -0.5454 -0.6480
vn 0.7736 0.2682 0.5741
vn -0.6554 -0.2921 -0.6965
vn -0.0810 0.1056 0.9911
vn 0.8378 0.2287 -0.4957
vn -0.3516 0.2428 0.9041
vn 0.8352 0.3559 -0.4192
vn 0.5178 0.5582 0.6482
vn 0.7406 -0.5610 -0.3699
vn -0.8215 0.2503 0.5124
vn 0.7298 -0.2982 -0.6152
vn -0.9301 0.1744 -0.3231
vn 0.1642 0.1731 0.9711
vn -0.7957 0.2575 -0.5482
vn 0.2263 0.3501 0.9090
vn -0.7364 0.5740 0.3582
usemtl AllColors_Material
s off
f 1/1/1 4/2/1 2/3/1
f 7/4/2 10/5/2 6/6/2
f 3/7/3 8/8/3 4/2/3
f 1/1/4 7/4/4 6/6/4
f 2/3/5 8/8/5 7/4/5
f 1/1/6 5/9/6 3/7/6
f 11/10/7 12/11/7 13/12/7
f 7/4/8 12/11/8 11/10/8
f 5/9/9 10/5/9 9/13/9
f 8/8/10 9/13/10 12/11/10
f 9/13/11 10/5/11 13/12/11
f 12/11/12 9/13/12 13/12/12
f 10/5/13 11/10/13 13/12/13
f 14/14/1 17/15/1 15/16/1
f 20/17/14 23/18/14 19/19/14
f 16/20/15 21/21/15 17/15/15
f 14/14/16 20/17/16 19/19/16
f 17/15/17 20/17/17 15/16/17
f 16/20/18 19/19/18 18/22/18
f 24/23/19 25/24/19 26/25/19
f 20/17/20 25/24/20 24/23/20
f 18/22/21 23/18/21 22/26/21
f 21/21/22 22/26/22 25/24/22
f 22/26/23 23/18/23 26/25/23
f 25/24/24 22/26/24 26/25/24
f 23/18/25 24/23/25 26/25/25
f 27/27/1 30/28/1 28/29/1
f 32/30/26 37/31/26 36/32/26
f 30/28/27 31/33/27 34/34/27
f 28/29/28 32/30/28 27/27/28
f 28/29/29 34/34/29 33/35/29
f 29/36/30 32/30/30 31/33/30
f 37/31/31 38/37/31 39/38/31
f 34/34/32 37/31/32 33/35/32
f 31/33/33 36/32/33 35/39/33
f 31/33/34 38/37/34 34/34/34
f 35/39/35 36/32/35 39/38/35
f 38/37/36 35/39/36 39/38/36
f 36/32/37 37/31/37 39/38/37
f 42/40/1 41/41/1 40/42/1
f 45/43/38 50/44/38 49/45/38
f 43/46/39 44/47/39 47/48/39
f 41/41/40 45/43/40 40/42/40
f 43/46/41 46/49/41 41/41/41
f 42/40/42 45/43/42 44/47/42
f 50/44/43 51/50/43 52/51/43
f 46/49/44 51/50/44 50/44/44
f 45/43/45 48/52/45 44/47/45
f 44/47/46 51/50/46 47/48/46
f 48/52/47 49/45/47 52/51/47
f 51/50/48 48/52/48 52/51/48
f 49/45/49 50/44/49 52/51/49
f 53/53/1 56/54/1 54/55/1
f 58/56/50 63/57/50 62/58/50
f 56/54/51 57/59/51 60/60/51
f 54/55/52 58/56/52 53/53/52
f 54/55/53 60/60/53 59/61/53
f 55/62/54 58/56/54 57/59/54
f 63/57/55 64/63/55 65/64/55
f 59/61/56 64/63/56 63/57/56
f 58/56/57 61/65/57 57/59/57
f 57/59/58 64/63/58 60/60/58
f 61/65/59 62/58/59 65/64/59
f 64/63/60 61/65/60 65/64/60
f 62/58/61 63/57/61 65/64/61
f 66/66/1 69/67/1 67/68/1
f 72/69/62 75/70/62 71/71/62
f 68/72/63 73/73/63 69/67/63
f 66/66/64 72/69/64 71/71/64
f 69/67/65 72/69/65 67/68/65
f 68/72/66 71/71/66 70/74/66
f 76/75/67 77/76/67 78/77/67
f 72/69/68 77/76/68 76/75/68
f 71/71/69 74/78/69 70/74/69
f 73/73/70 74/78/70 77/76/70
f 74/78/71 75/70/71 78/77/71
f 77/76/72 74/78/72 78/77/72
f 75/70/73 76/75/73 78/77/73
f 79/79/1 82/80/1 80/81/1
f 85/82/74 88/83/74 84/84/74
f 82/80/75 83/85/75 86/86/75
f 80/81/76 84/84/76 79/79/76
f 80/81/77 86/86/77 85/82/77
f 81/87/78 84/84/78 83/85/78
f 89/88/79 90/89/79 91/90/79
f 85/82/80 90/89/80 89/88/80
f 84/84/81 87/91/81 83/85/81
f 86/86/82 87/91/82 90/89/82
f 87/91/83 88/83/83 91/90/83
f 90/89/84 87/91/84 91/90/84
f 88/83/85 89/88/85 91/90/85
f 92/92/1 95/93/1 93/94/1
f 97/95/86 102/96/86 101/97/86
f 94/98/87 99/99/87 95/93/87
f 93/94/88 97/95/88 92/92/88
f 93/94/89 99/99/89 98/100/89
f 94/98/90 97/95/90 96/101/90
f 102/96/91 103/102/91 104/103/91
f 99/99/92 102/96/92 98/100/92
f 97/95/93 100/104/93 96/101/93
f 96/101/94 103/102/94 99/99/94
f 100/104/95 101/97/95 104/103/95
f 103/102/96 100/104/96 104/103/96
f 101/97/97 102/96/97 104/103/97
f 42/40/1 108/105/1 106/106/1
f 110/107/98 115/108/98 114/109/98
f 108/105/99 109/110/99 112/111/99
f 106/106/100 110/107/100 42/40/100
f 106/106/101 112/111/101 111/112/101
f 107/113/102 110/107/102 109/110/102
f 115/108/103 116/114/103 117/115/103
f 112/111/104 115/108/104 111/112/104
f 109/110/105 114/109/105 113/116/105
f 109/110/106 116/114/106 112/111/106
f 113/116/107 114/109/107 117/115/107
f 116/114/108 113/116/108 117/115/108
f 114/109/109 115/108/109 117/115/109
f 105/117/1 120/118/1 118/119/1
f 122/120/110 127/121/110 126/122/110
f 120/118/111 121/123/111 124/124/111
f 118/119/112 122/120/112 105/117/112
f 118/119/113 124/124/113 123/125/113
f 119/126/114 122/120/114 121/123/114
f 127/121/115 128/127/115 129/128/115
f 124/124/116 127/121/116 123/125/116
f 121/123/117 126/122/117 125/129/117
f 121/123/118 128/127/118 124/124/118
f 125/129/119 126/122/119 129/128/119
f 128/127/120 125/129/120 129/128/120
f 126/122/121 127/121/121 129/128/121
f 130/130/1 92/92/1 131/131/1
f 134/132/122 139/133/122 138/134/122
f 132/135/123 136/136/123 92/92/123
f 130/130/124 135/137/124 134/132/124
f 131/131/125 136/136/125 135/137/125
f 130/130/126 133/138/126 132/135/126
f 139/133/127 140/139/127 141/140/127
f 136/136/128 139/133/128 135/137/128
f 133/138/129 138/134/129 137/141/129
f 133/138/130 140/139/130 136/136/130
f 137/141/131 138/134/131 141/140/131
f 140/139/132 137/141/132 141/140/132
f 138/134/133 139/133/133 141/140/133
f 1/1/1 3/7/1 4/2/1
f 7/4/134 11/10/134 10/5/134
f 3/7/135 5/9/135 8/8/135
f 1/1/136 2/3/136 7/4/136
f 2/3/137 4/2/137 8/8/137
f 1/1/138 6/6/138 5/9/138
f 7/4/139 8/8/139 12/11/139
f 5/9/140 6/6/140 10/5/140
f 8/8/141 5/9/141 9/13/141
f 14/14/1 16/20/1 17/15/1
f 20/17/142 24/23/142 23/18/142
f 16/20/143 18/22/143 21/21/143
f 14/14/144 15/16/144 20/17/144
f 17/15/145 21/21/145 20/17/145
f 16/20/146 14/14/146 19/19/146
f 20/17/147 21/21/147 25/24/147
f 18/22/148 19/19/148 23/18/148
f 21/21/149 18/22/149 22/26/149
f 27/27/1 29/36/1 30/28/1
f 32/30/150 33/35/150 37/31/150
f 30/28/151 29/36/151 31/33/151
f 28/29/152 33/35/152 32/30/152
f 28/29/153 30/28/153 34/34/153
f 29/36/154 27/27/154 32/30/154
f 34/34/155 38/37/155 37/31/155
f 31/33/156 32/30/156 36/32/156
f 31/33/157 35/39/157 38/37/157
f 42/40/1 43/46/1 41/41/1
f 45/43/158 46/49/158 50/44/158
f 43/46/159 42/40/159 44/47/159
f 41/41/160 46/49/160 45/43/160
f 43/46/161 47/48/161 46/49/161
f 42/40/162 40/42/162 45/43/162
f 46/49/163 47/48/163 51/50/163
f 45/43/164 49/45/164 48/52/164
f 44/47/165 48/52/165 51/50/165
f 53/53/1 55/62/1 56/54/1
f 58/56/166 59/61/166 63/57/166
f 56/54/167 55/62/167 57/59/167
f 54/55/168 59/61/168 58/56/168
f 54/55/169 56/54/169 60/60/169
f 55/62/170 53/53/170 58/56/170
f 59/61/171 60/60/171 64/63/171
f 58/56/172 62/58/172 61/65/172
f 57/59/173 61/65/173 64/63/173
f 66/66/1 68/72/1 69/67/1
f 72/69/174 76/75/174 75/70/174
f 68/72/175 70/74/175 73/73/175
f 66/66/176 67/68/176 72/69/176
f 69/67/177 73/73/177 72/69/177
f 68/72/178 66/66/178 71/71/178
f 72/69/179 73/73/179 77/76/179
f 71/71/180 75/70/180 74/78/180
f 73/73/181 70/74/181 74/78/181
f 79/79/1 81/87/1 82/80/1
f 85/82/74 89/88/74 88/83/74
f 82/80/182 81/87/182 83/85/182
f 80/81/183 85/82/183 84/84/183
f 80/81/184 82/80/184 86/86/184
f 81/87/185 79/79/185 84/84/185
f 85/82/186 86/86/186 90/89/186
f 84/84/187 88/83/187 87/91/187
f 86/86/188 83/85/188 87/91/188
f 92/92/189 94/98/189 95/93/189
f 97/95/190 98/100/190 102/96/190
f 94/98/191 96/101/191 99/99/191
f 93/94/192 98/100/192 97/95/192
f 93/94/193 95/93/193 99/99/193
f 94/98/194 92/92/194 97/95/194
f 99/99/195 103/102/195 102/96/195
f 97/95/196 101/97/196 100/104/196
f 96/101/197 100/104/197 103/102/197
f 42/40/1 107/113/1 108/105/1
f 110/107/198 111/112/198 115/108/198
f 108/105/199 107/113/199 109/110/199
f 106/106/200 111/112/200 110/107/200
f 106/106/201 108/105/201 112/111/201
f 107/113/202 42/40/202 110/107/202
f 112/111/203 116/114/203 115/108/203
f 109/110/204 110/107/204 114/109/204
f 109/110/205 113/116/205 116/114/205
f 105/117/1 119/126/1 120/118/1
f 122/120/206 123/125/206 127/121/206
f 120/118/207 119/126/207 121/123/207
f 118/119/208 123/125/208 122/120/208
f 118/119/209 120/118/209 124/124/209
f 119/126/210 105/117/210 122/120/210
f 124/124/211 128/127/211 127/121/211
f 121/123/212 122/120/212 126/122/212
f 121/123/213 125/129/213 128/127/213
f 130/130/1 132/135/1 92/92/1
f 134/132/214 135/137/214 139/133/214
f 132/135/215 133/138/215 136/136/215
f 130/130/216 131/131/216 135/137/216
f 131/131/217 92/92/217 136/136/217
f 130/130/218 134/132/218 133/138/218
f 136/136/219 140/139/219 139/133/219
f 133/138/220 134/132/220 138/134/220
f 133/138/221 137/141/221 140/139/221
