# Blender v3.6.1 OBJ File: 'grass_blade.blend'
# www.blender.org
mtllib grass_blade.mtl
o GrassBlade_Plane
v -0.003981 0.001764 0.000509
v 0.085476 0.002474 0.000844
v -0.100540 0.001776 0.000271
v -0.003468 1.574741 -0.001222
v 0.086374 0.509306 -0.000274
v -0.099641 0.511539 -0.000846
v -0.099649 0.506872 -0.000836
v 0.086364 0.503276 -0.000260
v -0.003817 0.504843 -0.000045
v -0.073199 0.803860 -0.000950
v 0.061535 0.803870 -0.000536
v -0.003719 0.803784 -0.000374
v 0.039588 1.064148 -0.000767
v -0.003634 1.065117 -0.000661
v -0.049469 1.066196 -0.001042
v -0.100095 0.254324 -0.000283
v 0.085920 0.252875 0.000292
v -0.003899 0.253304 0.000232
v -0.061334 0.935028 -0.000996
v 0.050562 0.934009 -0.000652
v -0.003677 0.934450 -0.000517
v -0.003768 0.654313 -0.000209
v 0.073955 0.656588 -0.000405
v -0.086420 0.657700 -0.000898
v 0.026557 1.218674 -0.000905
v -0.003584 1.218550 -0.000830
v -0.035693 1.218486 -0.001096
vt 0.000034 0.322845
vt 0.000034 0.319012
vt 0.057358 0.319907
vt 0.057494 0.414915
vt 0.008093 0.416448
vt 0.058330 0.999966
vt 0.058006 0.773560
vt 0.078417 0.773483
vt 0.118276 0.160562
vt 0.057129 0.160021
vt 0.056900 0.000135
vt 0.118276 0.000034
vt 0.000037 0.159849
vt 0.000039 0.000686
vt 0.101794 0.509894
vt 0.057629 0.509922
vt 0.110035 0.416975
vt 0.023272 0.592758
vt 0.057748 0.592978
vt 0.057867 0.676033
vt 0.030393 0.675466
vt 0.094399 0.593281
vt 0.038848 0.773673
vt 0.118276 0.321090
vt 0.087003 0.676668
vt 0.016152 0.510051
vt 0.118276 0.324056
vn -0.0025 -0.0011 -1.0000
vn 0.0083 -0.0011 -1.0000
vn 0.0039 -0.0017 -1.0000
vn 0.0022 -0.0017 -1.0000
vn -0.0009 -0.0017 -1.0000
vn 0.0068 -0.0017 -1.0000
usemtl Material.001
s off
f 5/1/1 8/2/1 9/3/1 22/4/1 23/5/1
f 4/6/2 26/7/2 27/8/2
f 16/9/3 18/10/3 1/11/3 3/12/3
f 18/10/4 17/13/4 2/14/4 1/11/4
f 10/15/2 12/16/2 22/4/2 24/17/2
f 20/18/1 21/19/1 14/20/1 13/21/1
f 19/22/2 21/19/2 12/16/2 10/15/2
f 13/21/1 14/20/1 26/7/1 25/23/1
f 9/3/5 8/2/5 17/13/5 18/10/5
f 7/24/6 9/3/6 18/10/6 16/9/6
f 15/25/2 14/20/2 21/19/2 19/22/2
f 11/26/1 12/16/1 21/19/1 20/18/1
f 23/5/1 22/4/1 12/16/1 11/26/1
f 24/17/2 22/4/2 9/3/2 7/24/2 6/27/2
f 25/23/1 26/7/1 4/6/1
f 27/8/2 26/7/2 14/20/2 15/25/2
